<svg width="100" height="70" viewBox="0 0 100 70" fill="none" xmlns="http://www.w3.org/2000/svg">
<path d="M67.2002 67.224C67.9442 67.224 68.6762 67.02 69.3962 66.612C70.1402 66.204 70.8002 65.616 71.3762 64.848C71.9522 64.056 72.4202 63.096 72.7802 61.968C73.1402 60.84 73.3202 59.556 73.3202 58.116V39H80.7722V58.116C80.7722 59.748 80.4122 61.212 79.6922 62.508C78.9722 63.804 77.9882 64.908 76.7402 65.82C75.5162 66.708 74.0762 67.38 72.4202 67.836C70.7882 68.316 69.0482 68.556 67.2002 68.556V67.224ZM88.8002 39H96.7562V51.852H99.8882V53.868H96.7562V69.24H88.8002V39ZM80.4122 64.848C80.4122 63.744 80.7482 62.856 81.4202 62.184C82.1162 61.488 83.0162 61.14 84.1202 61.14C85.2242 61.14 86.1122 61.488 86.7842 62.184C87.4802 62.856 87.8282 63.744 87.8282 64.848C87.8282 65.952 87.4802 66.84 86.7842 67.512C86.1122 68.208 85.2242 68.556 84.1202 68.556C83.0162 68.556 82.1162 68.208 81.4202 67.512C80.7482 66.84 80.4122 65.952 80.4122 64.848Z" fill="#85FF7B"/>
<path d="M49.9802 67.584C50.6522 67.584 51.3242 67.56 51.9962 67.512C52.6682 67.464 53.3042 67.38 53.9042 67.26C54.5042 67.164 55.0442 67.032 55.5242 66.864C56.0282 66.696 56.4482 66.504 56.7842 66.288V39H64.7402V69.24H56.7842V67.944C56.0882 68.376 55.0922 68.7 53.7962 68.916C52.5002 69.132 51.1442 69.24 49.7282 69.24H38.8922C37.4762 69.24 36.3482 68.82 35.5082 67.98C34.6922 67.164 34.2842 66.06 34.2842 64.668C34.2842 63.276 34.6922 62.172 35.5082 61.356C36.3482 60.516 37.4762 60.096 38.8922 60.096H47.2802V54.732H38.6042C37.3082 54.732 36.2642 54.336 35.4722 53.544C34.6802 52.752 34.2842 51.696 34.2842 50.376C34.2842 49.056 34.6802 48.012 35.4722 47.244C36.2642 46.452 37.3082 46.056 38.6042 46.056H47.2802V40.656H34.9322V39H50.9162C52.2122 39 53.2562 39.396 54.0482 40.188C54.8402 40.98 55.2362 42.036 55.2362 43.356C55.2362 44.676 54.8402 45.732 54.0482 46.524C53.2562 47.316 52.2122 47.712 50.9162 47.712H42.2402V53.076H50.9162C52.2122 53.076 53.2562 53.472 54.0482 54.264C54.8402 55.032 55.2362 56.076 55.2362 57.396C55.2362 58.716 54.8402 59.772 54.0482 60.564C53.2562 61.356 52.2122 61.752 50.9162 61.752H42.2402V67.584H49.9802Z" fill="#85FF7B"/>
<path d="M0 67.5479H4.968V58.0799C3.24 57.1439 1.992 55.9319 1.224 54.4439C0.48 52.9559 0.108 51.2639 0.108 49.3679C0.108 47.7599 0.384 46.2959 0.936 44.9759C1.488 43.6319 2.376 42.4919 3.6 41.5559C4.824 40.5959 6.408 39.8639 8.352 39.3599C10.32 38.8319 12.708 38.5679 15.516 38.5679C18.324 38.5679 20.7 38.8319 22.644 39.3599C24.612 39.8639 26.208 40.5959 27.432 41.5559C28.656 42.4919 29.544 43.6319 30.096 44.9759C30.648 46.2959 30.924 47.7599 30.924 49.3679C30.924 51.2639 30.54 52.9559 29.772 54.4439C29.028 55.9319 27.792 57.1439 26.064 58.0799V66.8639C26.064 67.3199 26.28 67.5479 26.712 67.5479H31.104V69.2039H0V67.5479ZM15.516 58.5119C16.764 58.5119 17.844 58.2959 18.756 57.8639C19.692 57.4319 20.472 56.8199 21.096 56.0279C21.72 55.2359 22.188 54.2759 22.5 53.1479C22.812 52.0199 22.968 50.7599 22.968 49.3679C22.968 47.9999 22.812 46.7519 22.5 45.6239C22.188 44.4959 21.72 43.5359 21.096 42.7439C20.472 41.9279 19.692 41.3039 18.756 40.8719C17.844 40.4399 16.764 40.2239 15.516 40.2239C14.268 40.2239 13.176 40.4399 12.24 40.8719C11.328 41.3039 10.56 41.9279 9.936 42.7439C9.312 43.5359 8.844 44.4959 8.532 45.6239C8.22 46.7519 8.064 47.9999 8.064 49.3679C8.064 50.7599 8.22 52.0199 8.532 53.1479C8.844 54.2759 9.312 55.2359 9.936 56.0279C10.56 56.8199 11.328 57.4319 12.24 57.8639C13.176 58.2959 14.268 58.5119 15.516 58.5119ZM18.108 67.5479V60.0959C17.7 60.1439 17.28 60.1679 16.848 60.1679C16.416 60.1679 15.972 60.1679 15.516 60.1679C15.06 60.1679 14.616 60.1679 14.184 60.1679C13.752 60.1679 13.332 60.1439 12.924 60.0959V67.5479H18.108Z" fill="#85FF7B"/>
<path d="M67.5996 18.8919C68.3436 18.8919 69.1236 18.6879 69.9396 18.2799C70.7556 17.8719 71.4996 17.2839 72.1716 16.5159C72.8676 15.7239 73.4316 14.7639 73.8636 13.6359C74.3196 12.5079 74.5476 11.2239 74.5476 9.78392V4.95992H68.1036V3.30392H74.5476V0.315918H82.4676V3.30392H88.9836V4.95992H81.9996V9.78392C81.9996 11.4159 81.5916 12.8799 80.7756 14.1759C79.9836 15.4719 78.9156 16.5759 77.5716 17.4879C76.2276 18.3759 74.6916 19.0599 72.9636 19.5399C71.2356 19.9959 69.4476 20.2239 67.5996 20.2239V18.8919ZM74.0796 24.0759H67.9596V22.4199H83.9436C85.1196 22.4199 86.3316 22.3479 87.5796 22.2039C88.8276 22.0599 89.8956 21.8079 90.7836 21.4479V0.963918H98.7396V31.2039H90.7836V23.1039C89.8476 23.4639 88.7436 23.7159 87.4716 23.8599C86.1996 24.0039 84.9516 24.0759 83.7276 24.0759H82.3596V31.2039H74.0796V24.0759ZM82.1436 16.5159C82.1436 15.4119 82.4796 14.5239 83.1516 13.8519C83.8476 13.1559 84.7476 12.8079 85.8516 12.8079C86.9556 12.8079 87.8436 13.1559 88.5156 13.8519C89.1876 14.5239 89.5236 15.4119 89.5236 16.5159C89.5236 17.6199 89.1876 18.5199 88.5156 19.2159C87.8436 19.8879 86.9556 20.2239 85.8516 20.2239C84.7476 20.2239 83.8476 19.8879 83.1516 19.2159C82.4796 18.5199 82.1436 17.6199 82.1436 16.5159Z" fill="#85FF7B"/>
<path d="M33.208 29.224C33.952 29.224 34.684 29.02 35.404 28.612C36.148 28.204 36.808 27.616 37.384 26.848C37.96 26.056 38.428 25.096 38.788 23.968C39.148 22.84 39.328 21.556 39.328 20.116V2.656H33.388V1H53.044V2.656H46.78V20.116C46.78 21.748 46.42 23.212 45.7 24.508C44.98 25.804 43.996 26.908 42.748 27.82C41.524 28.708 40.084 29.38 38.428 29.836C36.796 30.316 35.056 30.556 33.208 30.556V29.224ZM54.808 1H62.764V13.852H65.896V15.868H62.764V31.24H54.808V1ZM46.42 26.848C46.42 25.744 46.756 24.856 47.428 24.184C48.124 23.488 49.024 23.14 50.128 23.14C51.232 23.14 52.12 23.488 52.792 24.184C53.488 24.856 53.836 25.744 53.836 26.848C53.836 27.952 53.488 28.84 52.792 29.512C52.12 30.208 51.232 30.556 50.128 30.556C49.024 30.556 48.124 30.208 47.428 29.512C46.756 28.84 46.42 27.952 46.42 26.848Z" fill="#85FF7B"/>
</svg>
