<svg width="227" height="46" viewBox="0 0 227 46" fill="none" xmlns="http://www.w3.org/2000/svg">
<path d="M194.192 39.224C194.936 39.224 195.668 39.02 196.388 38.612C197.132 38.204 197.792 37.616 198.368 36.848C198.944 36.056 199.412 35.096 199.772 33.968C200.132 32.84 200.312 31.556 200.312 30.116V11H207.764V30.116C207.764 31.748 207.404 33.212 206.684 34.508C205.964 35.804 204.98 36.908 203.732 37.82C202.508 38.708 201.068 39.38 199.412 39.836C197.78 40.316 196.04 40.556 194.192 40.556V39.224ZM215.792 11H223.748V23.852H226.88V25.868H223.748V41.24H215.792V11ZM207.404 36.848C207.404 35.744 207.74 34.856 208.412 34.184C209.108 33.488 210.008 33.14 211.112 33.14C212.216 33.14 213.104 33.488 213.776 34.184C214.472 34.856 214.82 35.744 214.82 36.848C214.82 37.952 214.472 38.84 213.776 39.512C213.104 40.208 212.216 40.556 211.112 40.556C210.008 40.556 209.108 40.208 208.412 39.512C207.74 38.84 207.404 37.952 207.404 36.848Z" fill="black"/>
<path d="M176.972 39.584C177.644 39.584 178.316 39.56 178.988 39.512C179.66 39.464 180.296 39.38 180.896 39.26C181.496 39.164 182.036 39.032 182.516 38.864C183.02 38.696 183.44 38.504 183.776 38.288V11H191.732V41.24H183.776V39.944C183.08 40.376 182.084 40.7 180.788 40.916C179.492 41.132 178.136 41.24 176.72 41.24H165.884C164.468 41.24 163.34 40.82 162.5 39.98C161.684 39.164 161.276 38.06 161.276 36.668C161.276 35.276 161.684 34.172 162.5 33.356C163.34 32.516 164.468 32.096 165.884 32.096H174.272V26.732H165.596C164.3 26.732 163.256 26.336 162.464 25.544C161.672 24.752 161.276 23.696 161.276 22.376C161.276 21.056 161.672 20.012 162.464 19.244C163.256 18.452 164.3 18.056 165.596 18.056H174.272V12.656H161.924V11H177.908C179.204 11 180.248 11.396 181.04 12.188C181.832 12.98 182.228 14.036 182.228 15.356C182.228 16.676 181.832 17.732 181.04 18.524C180.248 19.316 179.204 19.712 177.908 19.712H169.232V25.076H177.908C179.204 25.076 180.248 25.472 181.04 26.264C181.832 27.032 182.228 28.076 182.228 29.396C182.228 30.716 181.832 31.772 181.04 32.564C180.248 33.356 179.204 33.752 177.908 33.752H169.232V39.584H176.972Z" fill="black"/>
<path d="M126.992 39.5479H131.96V30.0799C130.232 29.1439 128.984 27.9319 128.216 26.4439C127.472 24.9559 127.1 23.2639 127.1 21.3679C127.1 19.7599 127.376 18.2959 127.928 16.9759C128.48 15.6319 129.368 14.4919 130.592 13.5559C131.816 12.5959 133.4 11.8639 135.344 11.3599C137.312 10.8319 139.7 10.5679 142.508 10.5679C145.316 10.5679 147.692 10.8319 149.636 11.3599C151.604 11.8639 153.2 12.5959 154.424 13.5559C155.648 14.4919 156.536 15.6319 157.088 16.9759C157.64 18.2959 157.916 19.7599 157.916 21.3679C157.916 23.2639 157.532 24.9559 156.764 26.4439C156.02 27.9319 154.784 29.1439 153.056 30.0799V38.8639C153.056 39.3199 153.272 39.5479 153.704 39.5479H158.096V41.2039H126.992V39.5479ZM142.508 30.5119C143.756 30.5119 144.836 30.2959 145.748 29.8639C146.684 29.4319 147.464 28.8199 148.088 28.0279C148.712 27.2359 149.18 26.2759 149.492 25.1479C149.804 24.0199 149.96 22.7599 149.96 21.3679C149.96 19.9999 149.804 18.7519 149.492 17.6239C149.18 16.4959 148.712 15.5359 148.088 14.7439C147.464 13.9279 146.684 13.3039 145.748 12.8719C144.836 12.4399 143.756 12.2239 142.508 12.2239C141.26 12.2239 140.168 12.4399 139.232 12.8719C138.32 13.3039 137.552 13.9279 136.928 14.7439C136.304 15.5359 135.836 16.4959 135.524 17.6239C135.212 18.7519 135.056 19.9999 135.056 21.3679C135.056 22.7599 135.212 24.0199 135.524 25.1479C135.836 26.2759 136.304 27.2359 136.928 28.0279C137.552 28.8199 138.32 29.4319 139.232 29.8639C140.168 30.2959 141.26 30.5119 142.508 30.5119ZM145.1 39.5479V32.0959C144.692 32.1439 144.272 32.1679 143.84 32.1679C143.408 32.1679 142.964 32.1679 142.508 32.1679C142.052 32.1679 141.608 32.1679 141.176 32.1679C140.744 32.1679 140.324 32.1439 139.916 32.0959V39.5479H145.1Z" fill="black"/>
<path d="M92.5996 28.8919C93.3436 28.8919 94.1236 28.6879 94.9396 28.2799C95.7556 27.8719 96.4996 27.2839 97.1716 26.5159C97.8676 25.7239 98.4316 24.7639 98.8636 23.6359C99.3196 22.5079 99.5476 21.2239 99.5476 19.7839V14.9599H93.1036V13.3039H99.5476V10.3159H107.468V13.3039H113.984V14.9599H107V19.7839C107 21.4159 106.592 22.8799 105.776 24.1759C104.984 25.4719 103.916 26.5759 102.572 27.4879C101.228 28.3759 99.6916 29.0599 97.9636 29.5399C96.2356 29.9959 94.4476 30.2239 92.5996 30.2239V28.8919ZM99.0796 34.0759H92.9596V32.4199H108.944C110.12 32.4199 111.332 32.3479 112.58 32.2039C113.828 32.0599 114.896 31.8079 115.784 31.4479V10.9639H123.74V41.2039H115.784V33.1039C114.848 33.4639 113.744 33.7159 112.472 33.8599C111.2 34.0039 109.952 34.0759 108.728 34.0759H107.36V41.2039H99.0796V34.0759ZM107.144 26.5159C107.144 25.4119 107.48 24.5239 108.152 23.8519C108.848 23.1559 109.748 22.8079 110.852 22.8079C111.956 22.8079 112.844 23.1559 113.516 23.8519C114.188 24.5239 114.524 25.4119 114.524 26.5159C114.524 27.6199 114.188 28.5199 113.516 29.2159C112.844 29.8879 111.956 30.2239 110.852 30.2239C109.748 30.2239 108.848 29.8879 108.152 29.2159C107.48 28.5199 107.144 27.6199 107.144 26.5159Z" fill="black"/>
<path d="M58.208 39.224C58.952 39.224 59.684 39.02 60.404 38.612C61.148 38.204 61.808 37.616 62.384 36.848C62.96 36.056 63.428 35.096 63.788 33.968C64.148 32.84 64.328 31.556 64.328 30.116V12.656H58.388V11H78.044V12.656H71.78V30.116C71.78 31.748 71.42 33.212 70.7 34.508C69.98 35.804 68.996 36.908 67.748 37.82C66.524 38.708 65.084 39.38 63.428 39.836C61.796 40.316 60.056 40.556 58.208 40.556V39.224ZM79.808 11H87.764V23.852H90.896V25.868H87.764V41.24H79.808V11ZM71.42 36.848C71.42 35.744 71.756 34.856 72.428 34.184C73.124 33.488 74.024 33.14 75.128 33.14C76.232 33.14 77.12 33.488 77.792 34.184C78.488 34.856 78.836 35.744 78.836 36.848C78.836 37.952 78.488 38.84 77.792 39.512C77.12 40.208 76.232 40.556 75.128 40.556C74.024 40.556 73.124 40.208 72.428 39.512C71.756 38.84 71.42 37.952 71.42 36.848Z" fill="black"/>
<circle cx="22.5244" cy="25" r="19" fill="#85FF7B"/>
<path d="M32.7483 5.43625C32.5565 5.43625 32.364 5.44127 32.1708 5.4509C30.0828 2.06274 26.4267 0 22.3877 0C18.3484 0 14.6924 2.06274 12.6047 5.4509C12.4115 5.44107 12.2188 5.43625 12.0271 5.43625C5.68441 5.43625 0.524414 10.5965 0.524414 16.9391C0.524414 22.2456 4.16539 26.8137 9.19563 28.0866V44.4303C9.19563 45.2974 9.89821 46 10.7653 46H34.0101C34.8771 46 35.5797 45.2974 35.5797 44.4303V28.0875C40.6091 26.8142 44.2509 22.2448 44.2509 16.9391C44.2509 10.5965 39.0909 5.43625 32.7483 5.43625ZM32.4404 42.8605H12.3349V39.902H16.6544H22.3879H28.1215H32.4408V42.8605H32.4404ZM33.8125 25.2324C33.0283 25.332 32.4404 25.999 32.4404 26.7895V37.2857H29.4292V27.4954C29.4292 26.7729 28.8436 26.1873 28.1211 26.1873C27.3986 26.1873 26.8131 26.7729 26.8131 27.4954V37.2857H23.6955V27.4954C23.6955 26.7729 23.1099 26.1873 22.3875 26.1873C21.665 26.1873 21.0794 26.7729 21.0794 27.4954V37.2857H17.9625V27.4954C17.9625 26.7729 17.3769 26.1873 16.6544 26.1873C15.932 26.1873 15.3464 26.7729 15.3464 27.4954V37.2857H12.3349V26.9416C12.3366 26.9238 12.3381 26.906 12.3393 26.8883C12.3912 26.0612 11.7914 25.3362 10.9691 25.2324C6.80451 24.7071 3.66394 21.1416 3.66394 16.9391C3.66394 12.3275 7.41584 8.57557 12.0273 8.57557C12.431 8.57557 12.8421 8.60571 13.25 8.66577C13.9241 8.76456 14.584 8.41798 14.8851 7.80727C16.306 4.92789 19.1812 3.13932 22.3877 3.13932C25.594 3.13932 28.4692 4.9281 29.8911 7.80748C30.1922 8.41798 30.8511 8.76414 31.5264 8.66577C31.9333 8.60592 32.3443 8.57557 32.7483 8.57557C37.3597 8.57557 41.1116 12.3275 41.1116 16.9391C41.1116 21.1391 37.9738 24.7043 33.8125 25.2324Z" fill="black"/>
</svg>
